# xmcd CD database file
#
# Track frame offsets:
#	182
#	14032
#	28272
#	42172
#	56580
#	72107
#	86995
#	101380
#	117645
#	133305
#	147912
#	163097
#	177342
#	192995
#	208670
#	221705
#	234880
#	248375
#	262277
#	277620
#	290630
#
# Disc length: 4088 seconds
#
# Revision: 0
# Processed by: cddbd v1.5.1PL0 Copyright (c) Steve Scherf et al.
# Submitted via: CDex 1.50Beta7
#
DISCID=470ff615
DTITLE=Jelly Roll Morton - Complete Edition Volume 3 - 1926
DYEAR=1926
DGENRE=Jazz
TTITLE0=Soap Suds (St. Louis Levee Band, St. Louis, 12 May 1926)
TTITLE1=Dead Man Blues (Edmonia Henderson, Chicago, 21 July 1926)
TTITLE2=Georgia Grind (Edmonia Henderson, Chicago, 21 July 1926)
TTITLE3=Black Bottom Stomp (JRM's Red Hot Peppers, Chicago, 15 Sept. 1926)
TTITLE4=Smoke-House Blues (JRM's Red Hot Peppers, Chicago, 15 Sept. 1926)
TTITLE5=The Chant (JRM's Red Hot Peppers, Chicago, 15 Sept. 1926)
TTITLE6=The Chant (master take) (JRM's Red Hot Peppers, Chicago, 15 Sept. 1926)
TTITLE7=Sidewalk Blues (JRM's Red Hot Peppers, Chicago, 21 Sept. 1926)
TTITLE8=Sidewalk Blues (master take) (JRM's Red Hot Peppers, Chicago, 21 Sept. 1926)
TTITLE9=Dead Man Blues (JRM's Red Hot Peppers, Chicago, 21 Sept. 1926)
TTITLE10=Dead Man Blues (master take) (JRM's Red Hot Peppers, Chicago, 21 Sept. 1926)
TTITLE11=Steamboat Stomp (JRM's Red Hot Peppers, Chicago, 21 Sept. 1926)
TTITLE12=Someday Sweetheart Blues (master take) (JRM's Red Hot Peppers, Chicago, 16 Dec. 1926)
TTITLE13=Someday Sweetheart (JRM's Red Hot Peppers, Chicago, 16 Dec. 1926)
TTITLE14=Grandpa's Spells (JRM's Red Hot Peppers, Chicago, 16 Dec. 1926)
TTITLE15=Grandpa's Spells (master take) (JRM's Red Hot Peppers, Chicago, 16 Dec. 1926)
TTITLE16=Original Jelly Roll Blues (JRM's Red Hot Peppers, Chicago, 16 Dec. 1926)
TTITLE17=Original Jelly Roll Blues (master take) (JRM's Red Hot Peppers, Chicago, 16 Dec. 1926)
TTITLE18=Doctor Jazz (JRM's Red Hot Peppers, Chicago, 16 Dec. 1926)
TTITLE19=Cannon Ball Blues (JRM's Red Hot Peppers, Chicago, 16 Dec. 1926)
TTITLE20=Cannon Ball - Blues (master take) (JRM's Red Hot Peppers, Chicago, 16 Dec. 1926)
EXTD=YEAR: 1926
EXTT0=
EXTT1=
EXTT2=
EXTT3=
EXTT4=
EXTT5=
EXTT6=
EXTT7=
EXTT8=
EXTT9=
EXTT10=
EXTT11=
EXTT12=
EXTT13=
EXTT14=
EXTT15=
EXTT16=
EXTT17=
EXTT18=
EXTT19=
EXTT20=
PLAYORDER=
